<mxfile host="Electron" modified="2023-06-15T18:00:44.768Z" agent="Mozilla/5.0 (Windows NT 10.0; Win64; x64) AppleWebKit/537.36 (KHTML, like Gecko) draw.io/21.2.8 Chrome/112.0.5615.165 Electron/24.2.0 Safari/537.36" etag="rz0UjrbzVxU0JTKRXkiu" version="21.2.8" type="device" pages="3">
  <diagram id="qowyHoLyhUc0C80yx3Qb" name="ARM">
    <mxGraphModel dx="1040" dy="505" grid="1" gridSize="10" guides="1" tooltips="1" connect="1" arrows="1" fold="1" page="1" pageScale="1" pageWidth="1169" pageHeight="827" math="0" shadow="0">
      <root>
        <mxCell id="0" />
        <mxCell id="1" parent="0" />
        <mxCell id="IKZ_f_gAGMKSp_j1z-cd-1" value="" style="rounded=0;whiteSpace=wrap;html=1;fillColor=#f5f5f5;fontColor=#333333;strokeColor=#666666;" vertex="1" parent="1">
          <mxGeometry x="290" y="220" width="658" height="410" as="geometry" />
        </mxCell>
        <mxCell id="IKZ_f_gAGMKSp_j1z-cd-2" value="&lt;b&gt;&lt;font color=&quot;#000000&quot; style=&quot;font-size: 19px;&quot;&gt;ARM&lt;/font&gt;&lt;/b&gt;" style="text;html=1;strokeColor=none;fillColor=none;align=center;verticalAlign=middle;whiteSpace=wrap;rounded=0;" vertex="1" parent="1">
          <mxGeometry x="553.5" y="189" width="131" height="40" as="geometry" />
        </mxCell>
        <mxCell id="IKZ_f_gAGMKSp_j1z-cd-3" value="" style="whiteSpace=wrap;html=1;aspect=fixed;fillColor=#f5f5f5;fontColor=#333333;strokeColor=#666666;" vertex="1" parent="1">
          <mxGeometry x="340" y="298" width="225" height="225" as="geometry" />
        </mxCell>
        <mxCell id="IKZ_f_gAGMKSp_j1z-cd-4" value="&lt;b&gt;&lt;font color=&quot;#000000&quot; style=&quot;font-size: 15px;&quot;&gt;c (controller)&lt;/font&gt;&lt;/b&gt;" style="text;html=1;strokeColor=none;fillColor=none;align=center;verticalAlign=middle;whiteSpace=wrap;rounded=0;" vertex="1" parent="1">
          <mxGeometry x="372.5" y="388" width="166" height="42" as="geometry" />
        </mxCell>
        <mxCell id="HvisnkdBRFhrLeEa5GIs-1" value="" style="whiteSpace=wrap;html=1;aspect=fixed;fillColor=#f5f5f5;fontColor=#333333;strokeColor=#666666;" vertex="1" parent="1">
          <mxGeometry x="670" y="295" width="225" height="225" as="geometry" />
        </mxCell>
        <mxCell id="TwtFYKMKkc7PEkpJHn7n-1" value="&lt;b&gt;&lt;font color=&quot;#000000&quot; style=&quot;font-size: 15px;&quot;&gt;dp (datapath)&lt;/font&gt;&lt;/b&gt;" style="text;html=1;strokeColor=none;fillColor=none;align=center;verticalAlign=middle;whiteSpace=wrap;rounded=0;" vertex="1" parent="1">
          <mxGeometry x="699.5" y="386.5" width="166" height="42" as="geometry" />
        </mxCell>
        <mxCell id="wkLfdWU8EfhcKa_7SRQ0-1" value="&lt;span style=&quot;font-size: 11px;&quot;&gt;clk&lt;/span&gt;" style="text;html=1;strokeColor=none;fillColor=none;align=center;verticalAlign=middle;whiteSpace=wrap;rounded=0;" vertex="1" parent="1">
          <mxGeometry x="546" y="680" width="30" height="24" as="geometry" />
        </mxCell>
        <mxCell id="wkLfdWU8EfhcKa_7SRQ0-2" value="&lt;font style=&quot;font-size: 11px;&quot;&gt;MemWrite&lt;/font&gt;" style="text;html=1;strokeColor=none;fillColor=none;align=center;verticalAlign=middle;whiteSpace=wrap;rounded=0;" vertex="1" parent="1">
          <mxGeometry x="165" y="358" width="56" height="24" as="geometry" />
        </mxCell>
        <mxCell id="wkLfdWU8EfhcKa_7SRQ0-3" value="" style="endArrow=classic;html=1;rounded=0;strokeColor=#080808;entryX=0.57;entryY=0.75;entryDx=0;entryDy=0;entryPerimeter=0;exitX=0.5;exitY=0;exitDx=0;exitDy=0;" edge="1" parent="1" source="wkLfdWU8EfhcKa_7SRQ0-1">
          <mxGeometry relative="1" as="geometry">
            <mxPoint x="560.9100000000001" y="675.824" as="sourcePoint" />
            <mxPoint x="561" y="637" as="targetPoint" />
          </mxGeometry>
        </mxCell>
        <mxCell id="wkLfdWU8EfhcKa_7SRQ0-4" value="" style="endArrow=none;html=1;rounded=0;strokeColor=#080808;entryX=-0.1;entryY=0.625;entryDx=0;entryDy=0;entryPerimeter=0;exitX=-0.004;exitY=0.37;exitDx=0;exitDy=0;exitPerimeter=0;endFill=0;" edge="1" parent="1">
          <mxGeometry relative="1" as="geometry">
            <mxPoint x="276.99799999999993" y="370.20000000000005" as="sourcePoint" />
            <mxPoint x="340.83000000000004" y="369.5" as="targetPoint" />
          </mxGeometry>
        </mxCell>
        <mxCell id="ys4Il7nFVWaniY49qSzw-1" value="" style="shape=waypoint;sketch=0;fillStyle=solid;size=6;pointerEvents=1;points=[];fillColor=none;resizable=0;rotatable=0;perimeter=centerPerimeter;snapToPoint=1;strokeColor=#030303;" vertex="1" parent="1">
          <mxGeometry x="551" y="624" width="20" height="20" as="geometry" />
        </mxCell>
        <mxCell id="sQWBRuJRHs5q-cvUEUvR-1" value="" style="edgeStyle=orthogonalEdgeStyle;rounded=0;orthogonalLoop=1;jettySize=auto;html=1;endArrow=classic;endFill=1;" edge="1" parent="1">
          <mxGeometry relative="1" as="geometry">
            <mxPoint x="665.664" y="448.1680000000001" as="sourcePoint" />
            <mxPoint x="571" y="448" as="targetPoint" />
            <Array as="points">
              <mxPoint x="613" y="448" />
              <mxPoint x="613" y="448" />
            </Array>
          </mxGeometry>
        </mxCell>
        <mxCell id="G4Qd2q3jQSORXaP36Yk_-1" value="" style="edgeStyle=orthogonalEdgeStyle;rounded=0;orthogonalLoop=1;jettySize=auto;html=1;entryX=0.521;entryY=0.824;entryDx=0;entryDy=0;entryPerimeter=0;endArrow=classic;endFill=1;" edge="1" parent="1">
          <mxGeometry relative="1" as="geometry">
            <mxPoint x="561" y="648" as="sourcePoint" />
            <mxPoint x="528.5" y="523" as="targetPoint" />
            <Array as="points">
              <mxPoint x="561" y="554" />
              <mxPoint x="529" y="554" />
            </Array>
          </mxGeometry>
        </mxCell>
        <mxCell id="sQWBRuJRHs5q-cvUEUvR-2" value="" style="shape=waypoint;sketch=0;fillStyle=solid;size=6;pointerEvents=1;points=[];fillColor=none;resizable=0;rotatable=0;perimeter=centerPerimeter;snapToPoint=1;strokeColor=#030303;" vertex="1" parent="1">
          <mxGeometry x="518.5" y="510" width="20" height="20" as="geometry" />
        </mxCell>
        <mxCell id="qoJpfF6jKJKFYE8ZUPri-1" value="&lt;font style=&quot;font-size: 10px;&quot;&gt;clk&lt;/font&gt;" style="text;html=1;strokeColor=none;fillColor=none;align=center;verticalAlign=middle;whiteSpace=wrap;rounded=0;" vertex="1" parent="1">
          <mxGeometry x="513.5" y="494" width="30" height="24" as="geometry" />
        </mxCell>
        <mxCell id="qoJpfF6jKJKFYE8ZUPri-8" value="&lt;span style=&quot;font-size: 11px;&quot;&gt;reset&lt;/span&gt;" style="text;html=1;strokeColor=none;fillColor=none;align=center;verticalAlign=middle;whiteSpace=wrap;rounded=0;" vertex="1" parent="1">
          <mxGeometry x="508.5" y="680" width="30" height="24" as="geometry" />
        </mxCell>
        <mxCell id="qoJpfF6jKJKFYE8ZUPri-9" value="" style="endArrow=classic;html=1;rounded=0;strokeColor=#080808;entryX=0.57;entryY=0.75;entryDx=0;entryDy=0;entryPerimeter=0;" edge="1" parent="1">
          <mxGeometry relative="1" as="geometry">
            <mxPoint x="524" y="680" as="sourcePoint" />
            <mxPoint x="523.5" y="637" as="targetPoint" />
          </mxGeometry>
        </mxCell>
        <mxCell id="qoJpfF6jKJKFYE8ZUPri-10" value="" style="shape=waypoint;sketch=0;fillStyle=solid;size=6;pointerEvents=1;points=[];fillColor=none;resizable=0;rotatable=0;perimeter=centerPerimeter;snapToPoint=1;strokeColor=#030303;" vertex="1" parent="1">
          <mxGeometry x="513.5" y="624" width="20" height="20" as="geometry" />
        </mxCell>
        <mxCell id="qoJpfF6jKJKFYE8ZUPri-11" value="" style="edgeStyle=orthogonalEdgeStyle;rounded=0;orthogonalLoop=1;jettySize=auto;html=1;entryX=0.521;entryY=0.824;entryDx=0;entryDy=0;entryPerimeter=0;endArrow=classic;endFill=1;" edge="1" parent="1">
          <mxGeometry relative="1" as="geometry">
            <mxPoint x="523.5" y="648" as="sourcePoint" />
            <mxPoint x="491" y="523" as="targetPoint" />
            <Array as="points">
              <mxPoint x="524" y="568" />
              <mxPoint x="491" y="568" />
            </Array>
          </mxGeometry>
        </mxCell>
        <mxCell id="qoJpfF6jKJKFYE8ZUPri-12" value="" style="shape=waypoint;sketch=0;fillStyle=solid;size=6;pointerEvents=1;points=[];fillColor=none;resizable=0;rotatable=0;perimeter=centerPerimeter;snapToPoint=1;strokeColor=#030303;" vertex="1" parent="1">
          <mxGeometry x="481" y="510" width="20" height="20" as="geometry" />
        </mxCell>
        <mxCell id="qoJpfF6jKJKFYE8ZUPri-13" value="&lt;font style=&quot;font-size: 10px;&quot;&gt;reset&lt;/font&gt;" style="text;html=1;strokeColor=none;fillColor=none;align=center;verticalAlign=middle;whiteSpace=wrap;rounded=0;" vertex="1" parent="1">
          <mxGeometry x="476" y="494" width="30" height="24" as="geometry" />
        </mxCell>
        <mxCell id="Pb-r3yyjtYvqCVnCp8vT-4" value="" style="edgeStyle=orthogonalEdgeStyle;rounded=0;orthogonalLoop=1;jettySize=auto;html=1;exitX=0.089;exitY=0.517;exitDx=0;exitDy=0;exitPerimeter=0;endArrow=none;endFill=0;" edge="1" parent="1">
          <mxGeometry relative="1" as="geometry">
            <mxPoint x="955" y="482" as="sourcePoint" />
            <mxPoint x="895" y="482" as="targetPoint" />
          </mxGeometry>
        </mxCell>
        <mxCell id="rcn3glh1MN31RXs_X7GM-1" value="" style="edgeStyle=orthogonalEdgeStyle;rounded=0;orthogonalLoop=1;jettySize=auto;html=1;" edge="1" parent="1">
          <mxGeometry relative="1" as="geometry">
            <mxPoint x="954" y="482" as="sourcePoint" />
            <mxPoint x="1010" y="482" as="targetPoint" />
          </mxGeometry>
        </mxCell>
        <mxCell id="rcn3glh1MN31RXs_X7GM-2" value="&lt;span style=&quot;font-size: 11px;&quot;&gt;ReadData&lt;/span&gt;" style="text;html=1;strokeColor=none;fillColor=none;align=center;verticalAlign=middle;whiteSpace=wrap;rounded=0;" vertex="1" parent="1">
          <mxGeometry x="1010" y="408" width="60" height="24" as="geometry" />
        </mxCell>
        <mxCell id="VXcBYNp8DSJqZ1AOruS_-1" value="" style="edgeStyle=orthogonalEdgeStyle;rounded=0;orthogonalLoop=1;jettySize=auto;html=1;exitX=0.089;exitY=0.517;exitDx=0;exitDy=0;exitPerimeter=0;strokeColor=default;endArrow=none;endFill=0;" edge="1" parent="1">
          <mxGeometry relative="1" as="geometry">
            <mxPoint x="895" y="370" as="sourcePoint" />
            <mxPoint x="955" y="370" as="targetPoint" />
          </mxGeometry>
        </mxCell>
        <mxCell id="VXcBYNp8DSJqZ1AOruS_-4" value="" style="edgeStyle=orthogonalEdgeStyle;rounded=0;orthogonalLoop=1;jettySize=auto;html=1;" edge="1" parent="1">
          <mxGeometry relative="1" as="geometry">
            <mxPoint x="954" y="370" as="sourcePoint" />
            <mxPoint x="1010" y="370" as="targetPoint" />
          </mxGeometry>
        </mxCell>
        <mxCell id="VXcBYNp8DSJqZ1AOruS_-5" value="&lt;span style=&quot;font-size: 11px;&quot;&gt;PC&lt;/span&gt;" style="text;html=1;strokeColor=none;fillColor=none;align=center;verticalAlign=middle;whiteSpace=wrap;rounded=0;" vertex="1" parent="1">
          <mxGeometry x="1010" y="358" width="30" height="24" as="geometry" />
        </mxCell>
        <mxCell id="VXcBYNp8DSJqZ1AOruS_-6" value="" style="edgeStyle=orthogonalEdgeStyle;rounded=0;orthogonalLoop=1;jettySize=auto;html=1;exitX=0.089;exitY=0.517;exitDx=0;exitDy=0;exitPerimeter=0;endArrow=classic;endFill=1;" edge="1" parent="1">
          <mxGeometry relative="1" as="geometry">
            <mxPoint x="961" y="422" as="sourcePoint" />
            <mxPoint x="901" y="422" as="targetPoint" />
          </mxGeometry>
        </mxCell>
        <mxCell id="VXcBYNp8DSJqZ1AOruS_-7" value="" style="shape=waypoint;sketch=0;fillStyle=solid;size=6;pointerEvents=1;points=[];fillColor=none;resizable=0;rotatable=0;perimeter=centerPerimeter;snapToPoint=1;strokeColor=#030303;" vertex="1" parent="1">
          <mxGeometry x="941" y="412" width="20" height="20" as="geometry" />
        </mxCell>
        <mxCell id="VXcBYNp8DSJqZ1AOruS_-8" value="" style="shape=waypoint;sketch=0;fillStyle=solid;size=6;pointerEvents=1;points=[];fillColor=none;resizable=0;rotatable=0;perimeter=centerPerimeter;snapToPoint=1;strokeColor=#030303;" vertex="1" parent="1">
          <mxGeometry x="888" y="412" width="20" height="20" as="geometry" />
        </mxCell>
        <mxCell id="VXcBYNp8DSJqZ1AOruS_-9" value="" style="edgeStyle=orthogonalEdgeStyle;rounded=0;orthogonalLoop=1;jettySize=auto;html=1;" edge="1" parent="1">
          <mxGeometry relative="1" as="geometry">
            <mxPoint x="1010" y="422" as="sourcePoint" />
            <mxPoint x="954" y="422" as="targetPoint" />
          </mxGeometry>
        </mxCell>
        <mxCell id="VXcBYNp8DSJqZ1AOruS_-10" value="" style="edgeStyle=orthogonalEdgeStyle;rounded=0;orthogonalLoop=1;jettySize=auto;html=1;exitX=0.089;exitY=0.517;exitDx=0;exitDy=0;exitPerimeter=0;endArrow=none;endFill=0;" edge="1" parent="1">
          <mxGeometry relative="1" as="geometry">
            <mxPoint x="895" y="452" as="sourcePoint" />
            <mxPoint x="953" y="452" as="targetPoint" />
          </mxGeometry>
        </mxCell>
        <mxCell id="VXcBYNp8DSJqZ1AOruS_-13" value="" style="edgeStyle=orthogonalEdgeStyle;rounded=0;orthogonalLoop=1;jettySize=auto;html=1;" edge="1" parent="1">
          <mxGeometry relative="1" as="geometry">
            <mxPoint x="954" y="452" as="sourcePoint" />
            <mxPoint x="1010" y="452" as="targetPoint" />
          </mxGeometry>
        </mxCell>
        <mxCell id="VXcBYNp8DSJqZ1AOruS_-14" value="&lt;font style=&quot;font-size: 11px;&quot;&gt;ALUResult&lt;/font&gt;" style="text;html=1;strokeColor=none;fillColor=none;align=center;verticalAlign=middle;whiteSpace=wrap;rounded=0;" vertex="1" parent="1">
          <mxGeometry x="1010" y="468" width="60" height="24" as="geometry" />
        </mxCell>
        <mxCell id="VXcBYNp8DSJqZ1AOruS_-15" value="&lt;span style=&quot;font-size: 11px;&quot;&gt;WriteData&lt;/span&gt;" style="text;html=1;strokeColor=none;fillColor=none;align=center;verticalAlign=middle;whiteSpace=wrap;rounded=0;" vertex="1" parent="1">
          <mxGeometry x="1010" y="438" width="60" height="24" as="geometry" />
        </mxCell>
        <mxCell id="iQrxuarGfr4quIj_L71X-1" value="" style="endArrow=none;html=1;rounded=0;strokeColor=#18141d;" edge="1" parent="1">
          <mxGeometry width="50" height="50" relative="1" as="geometry">
            <mxPoint x="980" y="488" as="sourcePoint" />
            <mxPoint x="992" y="476" as="targetPoint" />
          </mxGeometry>
        </mxCell>
        <mxCell id="iQrxuarGfr4quIj_L71X-2" value="&lt;font color=&quot;#000000&quot; style=&quot;font-size: 9px;&quot;&gt;32&lt;/font&gt;" style="text;html=1;strokeColor=none;fillColor=none;align=center;verticalAlign=middle;whiteSpace=wrap;rounded=0;" vertex="1" parent="1">
          <mxGeometry x="980" y="488" width="12" height="14" as="geometry" />
        </mxCell>
        <mxCell id="Dn6D70ya-9PUzfRVV97V-1" value="" style="endArrow=none;html=1;rounded=0;strokeColor=#18141d;" edge="1" parent="1">
          <mxGeometry width="50" height="50" relative="1" as="geometry">
            <mxPoint x="920" y="488" as="sourcePoint" />
            <mxPoint x="932" y="476" as="targetPoint" />
          </mxGeometry>
        </mxCell>
        <mxCell id="Dn6D70ya-9PUzfRVV97V-2" value="&lt;font color=&quot;#000000&quot; style=&quot;font-size: 9px;&quot;&gt;32&lt;/font&gt;" style="text;html=1;strokeColor=none;fillColor=none;align=center;verticalAlign=middle;whiteSpace=wrap;rounded=0;" vertex="1" parent="1">
          <mxGeometry x="920" y="488" width="12" height="14" as="geometry" />
        </mxCell>
        <mxCell id="Dn6D70ya-9PUzfRVV97V-3" value="&lt;font style=&quot;font-size: 10px;&quot;&gt;PC&lt;/font&gt;" style="text;html=1;strokeColor=none;fillColor=none;align=center;verticalAlign=middle;whiteSpace=wrap;rounded=0;" vertex="1" parent="1">
          <mxGeometry x="854" y="358" width="30" height="24" as="geometry" />
        </mxCell>
        <mxCell id="Dn6D70ya-9PUzfRVV97V-4" value="" style="endArrow=none;html=1;rounded=0;strokeColor=#18141d;" edge="1" parent="1">
          <mxGeometry width="50" height="50" relative="1" as="geometry">
            <mxPoint x="980" y="376" as="sourcePoint" />
            <mxPoint x="992" y="364" as="targetPoint" />
          </mxGeometry>
        </mxCell>
        <mxCell id="Dn6D70ya-9PUzfRVV97V-5" value="&lt;font color=&quot;#000000&quot; style=&quot;font-size: 9px;&quot;&gt;32&lt;/font&gt;" style="text;html=1;strokeColor=none;fillColor=none;align=center;verticalAlign=middle;whiteSpace=wrap;rounded=0;" vertex="1" parent="1">
          <mxGeometry x="980" y="372" width="12" height="14" as="geometry" />
        </mxCell>
        <mxCell id="Dn6D70ya-9PUzfRVV97V-6" value="" style="endArrow=none;html=1;rounded=0;strokeColor=#18141d;" edge="1" parent="1">
          <mxGeometry width="50" height="50" relative="1" as="geometry">
            <mxPoint x="920" y="376" as="sourcePoint" />
            <mxPoint x="932" y="364" as="targetPoint" />
          </mxGeometry>
        </mxCell>
        <mxCell id="Dn6D70ya-9PUzfRVV97V-7" value="&lt;font color=&quot;#000000&quot; style=&quot;font-size: 9px;&quot;&gt;32&lt;/font&gt;" style="text;html=1;strokeColor=none;fillColor=none;align=center;verticalAlign=middle;whiteSpace=wrap;rounded=0;" vertex="1" parent="1">
          <mxGeometry x="920" y="372" width="12" height="14" as="geometry" />
        </mxCell>
        <mxCell id="Dn6D70ya-9PUzfRVV97V-8" value="" style="endArrow=none;html=1;rounded=0;strokeColor=#18141d;" edge="1" parent="1">
          <mxGeometry width="50" height="50" relative="1" as="geometry">
            <mxPoint x="980" y="458" as="sourcePoint" />
            <mxPoint x="992" y="446" as="targetPoint" />
          </mxGeometry>
        </mxCell>
        <mxCell id="Dn6D70ya-9PUzfRVV97V-9" value="&lt;font color=&quot;#000000&quot; style=&quot;font-size: 9px;&quot;&gt;32&lt;/font&gt;" style="text;html=1;strokeColor=none;fillColor=none;align=center;verticalAlign=middle;whiteSpace=wrap;rounded=0;" vertex="1" parent="1">
          <mxGeometry x="980" y="454" width="12" height="14" as="geometry" />
        </mxCell>
        <mxCell id="Dn6D70ya-9PUzfRVV97V-10" value="" style="endArrow=none;html=1;rounded=0;strokeColor=#18141d;" edge="1" parent="1">
          <mxGeometry width="50" height="50" relative="1" as="geometry">
            <mxPoint x="920" y="458" as="sourcePoint" />
            <mxPoint x="932" y="446" as="targetPoint" />
          </mxGeometry>
        </mxCell>
        <mxCell id="Dn6D70ya-9PUzfRVV97V-11" value="&lt;font color=&quot;#000000&quot; style=&quot;font-size: 9px;&quot;&gt;32&lt;/font&gt;" style="text;html=1;strokeColor=none;fillColor=none;align=center;verticalAlign=middle;whiteSpace=wrap;rounded=0;" vertex="1" parent="1">
          <mxGeometry x="920" y="454" width="12" height="14" as="geometry" />
        </mxCell>
        <mxCell id="Dn6D70ya-9PUzfRVV97V-12" value="" style="endArrow=none;html=1;rounded=0;strokeColor=#18141d;" edge="1" parent="1">
          <mxGeometry width="50" height="50" relative="1" as="geometry">
            <mxPoint x="980" y="428" as="sourcePoint" />
            <mxPoint x="992" y="416" as="targetPoint" />
          </mxGeometry>
        </mxCell>
        <mxCell id="Dn6D70ya-9PUzfRVV97V-13" value="&lt;font color=&quot;#000000&quot; style=&quot;font-size: 9px;&quot;&gt;32&lt;/font&gt;" style="text;html=1;strokeColor=none;fillColor=none;align=center;verticalAlign=middle;whiteSpace=wrap;rounded=0;" vertex="1" parent="1">
          <mxGeometry x="980" y="424" width="12" height="14" as="geometry" />
        </mxCell>
        <mxCell id="Dn6D70ya-9PUzfRVV97V-14" value="" style="endArrow=none;html=1;rounded=0;strokeColor=#18141d;" edge="1" parent="1">
          <mxGeometry width="50" height="50" relative="1" as="geometry">
            <mxPoint x="920" y="428" as="sourcePoint" />
            <mxPoint x="932" y="416" as="targetPoint" />
          </mxGeometry>
        </mxCell>
        <mxCell id="Dn6D70ya-9PUzfRVV97V-15" value="&lt;font color=&quot;#000000&quot; style=&quot;font-size: 9px;&quot;&gt;32&lt;/font&gt;" style="text;html=1;strokeColor=none;fillColor=none;align=center;verticalAlign=middle;whiteSpace=wrap;rounded=0;" vertex="1" parent="1">
          <mxGeometry x="920" y="424" width="12" height="14" as="geometry" />
        </mxCell>
        <mxCell id="PaXfJgDrMCnB8OVxDTLp-1" value="" style="verticalLabelPosition=bottom;verticalAlign=top;html=1;shape=mxgraph.basic.rect;fillColor2=none;strokeWidth=1;size=0;indent=5;strokeColor=none;fillColor=#000000;" vertex="1" parent="1">
          <mxGeometry x="895" y="366" width="8" height="8" as="geometry" />
        </mxCell>
        <mxCell id="PaXfJgDrMCnB8OVxDTLp-2" value="" style="verticalLabelPosition=bottom;verticalAlign=top;html=1;shape=mxgraph.basic.rect;fillColor2=none;strokeWidth=1;size=0;indent=0;strokeColor=none;fillColor=#000000;" vertex="1" parent="1">
          <mxGeometry x="895" y="448" width="8" height="8" as="geometry" />
        </mxCell>
        <mxCell id="PaXfJgDrMCnB8OVxDTLp-3" value="" style="verticalLabelPosition=bottom;verticalAlign=top;html=1;shape=mxgraph.basic.rect;fillColor2=none;strokeWidth=1;size=0;indent=0;strokeColor=none;fillColor=#000000;" vertex="1" parent="1">
          <mxGeometry x="895" y="478" width="8" height="8" as="geometry" />
        </mxCell>
        <mxCell id="m4jSK3VInTJ_FLm7rqs0-1" value="" style="verticalLabelPosition=bottom;verticalAlign=top;html=1;shape=mxgraph.basic.rect;fillColor2=none;strokeWidth=1;size=0;indent=5;strokeColor=none;fillColor=#000000;" vertex="1" parent="1">
          <mxGeometry x="948" y="366" width="8" height="8" as="geometry" />
        </mxCell>
        <mxCell id="m4jSK3VInTJ_FLm7rqs0-2" value="" style="verticalLabelPosition=bottom;verticalAlign=top;html=1;shape=mxgraph.basic.rect;fillColor2=none;strokeWidth=1;size=0;indent=5;strokeColor=none;fillColor=#000000;" vertex="1" parent="1">
          <mxGeometry x="948" y="448" width="8" height="8" as="geometry" />
        </mxCell>
        <mxCell id="m4jSK3VInTJ_FLm7rqs0-4" value="" style="verticalLabelPosition=bottom;verticalAlign=top;html=1;shape=mxgraph.basic.rect;fillColor2=none;strokeWidth=1;size=0;indent=5;strokeColor=none;fillColor=#000000;" vertex="1" parent="1">
          <mxGeometry x="948" y="478" width="8" height="8" as="geometry" />
        </mxCell>
        <mxCell id="-hIPTyqPZK4ap6cLq8tR-1" value="" style="verticalLabelPosition=bottom;verticalAlign=top;html=1;shape=mxgraph.basic.rect;fillColor2=none;strokeWidth=1;size=0;indent=5;strokeColor=none;fillColor=#000000;" vertex="1" parent="1">
          <mxGeometry x="333" y="366" width="8" height="8" as="geometry" />
        </mxCell>
        <mxCell id="-hIPTyqPZK4ap6cLq8tR-2" value="" style="endArrow=classic;html=1;rounded=0;strokeColor=#080808;entryX=0.052;entryY=0.638;entryDx=0;entryDy=0;entryPerimeter=0;endFill=1;" edge="1" parent="1">
          <mxGeometry relative="1" as="geometry">
            <mxPoint x="281" y="370" as="sourcePoint" />
            <mxPoint x="225" y="370" as="targetPoint" />
          </mxGeometry>
        </mxCell>
        <mxCell id="-hIPTyqPZK4ap6cLq8tR-3" value="" style="verticalLabelPosition=bottom;verticalAlign=top;html=1;shape=mxgraph.basic.rect;fillColor2=none;strokeWidth=1;size=0;indent=5;strokeColor=none;fillColor=#000000;" vertex="1" parent="1">
          <mxGeometry x="282" y="366" width="8" height="8" as="geometry" />
        </mxCell>
        <mxCell id="B6v5k5UHdY2-5HDSnt9a-6" value="" style="endArrow=classic;html=1;rounded=0;strokeColor=#080808;entryX=0.57;entryY=0.75;entryDx=0;entryDy=0;entryPerimeter=0;exitX=0.5;exitY=0;exitDx=0;exitDy=0;" edge="1" parent="1">
          <mxGeometry relative="1" as="geometry">
            <mxPoint x="595" y="680" as="sourcePoint" />
            <mxPoint x="595" y="637" as="targetPoint" />
          </mxGeometry>
        </mxCell>
        <mxCell id="B6v5k5UHdY2-5HDSnt9a-7" value="" style="shape=waypoint;sketch=0;fillStyle=solid;size=6;pointerEvents=1;points=[];fillColor=none;resizable=0;rotatable=0;perimeter=centerPerimeter;snapToPoint=1;strokeColor=#030303;" vertex="1" parent="1">
          <mxGeometry x="585" y="624" width="20" height="20" as="geometry" />
        </mxCell>
        <mxCell id="B6v5k5UHdY2-5HDSnt9a-8" value="&lt;span style=&quot;font-size: 11px;&quot;&gt;Instr&lt;/span&gt;" style="text;html=1;strokeColor=none;fillColor=none;align=center;verticalAlign=middle;whiteSpace=wrap;rounded=0;" vertex="1" parent="1">
          <mxGeometry x="580" y="680" width="30" height="24" as="geometry" />
        </mxCell>
        <mxCell id="B6v5k5UHdY2-5HDSnt9a-10" value="&lt;font color=&quot;#000000&quot; style=&quot;font-size: 9px;&quot;&gt;32&lt;/font&gt;" style="text;html=1;strokeColor=none;fillColor=none;align=center;verticalAlign=middle;whiteSpace=wrap;rounded=0;" vertex="1" parent="1">
          <mxGeometry x="598" y="650" width="12" height="14" as="geometry" />
        </mxCell>
        <mxCell id="B6v5k5UHdY2-5HDSnt9a-12" value="" style="endArrow=none;html=1;rounded=0;strokeColor=#18141d;" edge="1" parent="1">
          <mxGeometry width="50" height="50" relative="1" as="geometry">
            <mxPoint x="589" y="662" as="sourcePoint" />
            <mxPoint x="601" y="650" as="targetPoint" />
          </mxGeometry>
        </mxCell>
        <mxCell id="B6v5k5UHdY2-5HDSnt9a-16" value="" style="shape=waypoint;sketch=0;fillStyle=solid;size=6;pointerEvents=1;points=[];fillColor=none;resizable=0;rotatable=0;perimeter=centerPerimeter;snapToPoint=1;strokeColor=#030303;" vertex="1" parent="1">
          <mxGeometry x="662.5" y="472" width="20" height="20" as="geometry" />
        </mxCell>
        <mxCell id="B6v5k5UHdY2-5HDSnt9a-18" value="" style="edgeStyle=orthogonalEdgeStyle;rounded=0;orthogonalLoop=1;jettySize=auto;html=1;endArrow=classic;endFill=1;" edge="1" parent="1">
          <mxGeometry relative="1" as="geometry">
            <mxPoint x="593" y="634" as="sourcePoint" />
            <mxPoint x="670.5" y="482" as="targetPoint" />
            <Array as="points">
              <mxPoint x="593" y="482" />
            </Array>
          </mxGeometry>
        </mxCell>
        <mxCell id="B6v5k5UHdY2-5HDSnt9a-19" value="&lt;font color=&quot;#000000&quot; style=&quot;font-size: 9px;&quot;&gt;32&lt;/font&gt;" style="text;html=1;strokeColor=none;fillColor=none;align=center;verticalAlign=middle;whiteSpace=wrap;rounded=0;" vertex="1" parent="1">
          <mxGeometry x="630" y="486" width="12" height="14" as="geometry" />
        </mxCell>
        <mxCell id="B6v5k5UHdY2-5HDSnt9a-21" value="" style="endArrow=none;html=1;rounded=0;strokeColor=#18141d;" edge="1" parent="1">
          <mxGeometry width="50" height="50" relative="1" as="geometry">
            <mxPoint x="631" y="488" as="sourcePoint" />
            <mxPoint x="643" y="476" as="targetPoint" />
          </mxGeometry>
        </mxCell>
        <mxCell id="B6v5k5UHdY2-5HDSnt9a-22" value="&lt;font style=&quot;font-size: 10px;&quot;&gt;Instr&lt;/font&gt;" style="text;html=1;strokeColor=none;fillColor=none;align=center;verticalAlign=middle;whiteSpace=wrap;rounded=0;" vertex="1" parent="1">
          <mxGeometry x="671" y="469" width="30" height="24" as="geometry" />
        </mxCell>
        <mxCell id="B6v5k5UHdY2-5HDSnt9a-23" value="&lt;font style=&quot;font-size: 10px;&quot;&gt;ALUResult&lt;/font&gt;" style="text;html=1;strokeColor=none;fillColor=none;align=center;verticalAlign=middle;whiteSpace=wrap;rounded=0;" vertex="1" parent="1">
          <mxGeometry x="839" y="469" width="60" height="24" as="geometry" />
        </mxCell>
        <mxCell id="B6v5k5UHdY2-5HDSnt9a-24" value="&lt;font style=&quot;font-size: 10px;&quot;&gt;WriteData&lt;/font&gt;" style="text;html=1;strokeColor=none;fillColor=none;align=center;verticalAlign=middle;whiteSpace=wrap;rounded=0;" vertex="1" parent="1">
          <mxGeometry x="841" y="439" width="60" height="24" as="geometry" />
        </mxCell>
        <mxCell id="B6v5k5UHdY2-5HDSnt9a-25" value="&lt;font style=&quot;font-size: 10px;&quot;&gt;ReadData&lt;/font&gt;" style="text;html=1;strokeColor=none;fillColor=none;align=center;verticalAlign=middle;whiteSpace=wrap;rounded=0;" vertex="1" parent="1">
          <mxGeometry x="839" y="409" width="60" height="24" as="geometry" />
        </mxCell>
        <mxCell id="B6v5k5UHdY2-5HDSnt9a-27" value="" style="shape=waypoint;sketch=0;fillStyle=solid;size=6;pointerEvents=1;points=[];fillColor=none;resizable=0;rotatable=0;perimeter=centerPerimeter;snapToPoint=1;strokeColor=#030303;" vertex="1" parent="1">
          <mxGeometry x="552.5" y="472" width="20" height="20" as="geometry" />
        </mxCell>
        <mxCell id="B6v5k5UHdY2-5HDSnt9a-33" value="" style="endArrow=classic;html=1;rounded=0;orthogonalLoop=0;" edge="1" parent="1">
          <mxGeometry width="50" height="50" relative="1" as="geometry">
            <mxPoint x="611" y="482" as="sourcePoint" />
            <mxPoint x="565.5" y="482" as="targetPoint" />
          </mxGeometry>
        </mxCell>
        <mxCell id="B6v5k5UHdY2-5HDSnt9a-34" value="&lt;font style=&quot;font-size: 10px;&quot;&gt;Instr&lt;/font&gt;" style="text;html=1;strokeColor=none;fillColor=none;align=center;verticalAlign=middle;whiteSpace=wrap;rounded=0;" vertex="1" parent="1">
          <mxGeometry x="532.5" y="469" width="30" height="24" as="geometry" />
        </mxCell>
        <mxCell id="B6v5k5UHdY2-5HDSnt9a-35" value="" style="endArrow=none;html=1;rounded=0;strokeColor=#18141d;" edge="1" parent="1">
          <mxGeometry width="50" height="50" relative="1" as="geometry">
            <mxPoint x="576" y="488" as="sourcePoint" />
            <mxPoint x="588" y="476" as="targetPoint" />
          </mxGeometry>
        </mxCell>
        <mxCell id="B6v5k5UHdY2-5HDSnt9a-36" value="&lt;font style=&quot;font-size: 9px;&quot;&gt;[31:12]&lt;/font&gt;" style="text;whiteSpace=wrap;html=1;" vertex="1" parent="1">
          <mxGeometry x="571" y="452" width="25" height="20" as="geometry" />
        </mxCell>
        <mxCell id="B6v5k5UHdY2-5HDSnt9a-38" value="" style="edgeStyle=orthogonalEdgeStyle;rounded=0;orthogonalLoop=1;jettySize=auto;html=1;endArrow=classic;endFill=1;" edge="1" parent="1">
          <mxGeometry relative="1" as="geometry">
            <mxPoint x="754.66" y="568" as="sourcePoint" />
            <mxPoint x="754.6599999999997" y="521.0000000000001" as="targetPoint" />
            <Array as="points" />
          </mxGeometry>
        </mxCell>
        <mxCell id="B6v5k5UHdY2-5HDSnt9a-40" value="&lt;font style=&quot;font-size: 10px;&quot;&gt;reset&lt;/font&gt;" style="text;html=1;strokeColor=none;fillColor=none;align=center;verticalAlign=middle;whiteSpace=wrap;rounded=0;" vertex="1" parent="1">
          <mxGeometry x="740" y="492" width="30" height="24" as="geometry" />
        </mxCell>
        <mxCell id="B6v5k5UHdY2-5HDSnt9a-41" value="&lt;font style=&quot;font-size: 10px;&quot;&gt;clk&lt;/font&gt;" style="text;html=1;strokeColor=none;fillColor=none;align=center;verticalAlign=middle;whiteSpace=wrap;rounded=0;" vertex="1" parent="1">
          <mxGeometry x="781" y="492" width="30" height="24" as="geometry" />
        </mxCell>
        <mxCell id="B6v5k5UHdY2-5HDSnt9a-42" value="" style="shape=waypoint;sketch=0;fillStyle=solid;size=6;pointerEvents=1;points=[];fillColor=none;resizable=0;rotatable=0;perimeter=centerPerimeter;snapToPoint=1;strokeColor=#030303;" vertex="1" parent="1">
          <mxGeometry x="745" y="508" width="20" height="20" as="geometry" />
        </mxCell>
        <mxCell id="B6v5k5UHdY2-5HDSnt9a-43" value="" style="shape=waypoint;sketch=0;fillStyle=solid;size=6;pointerEvents=1;points=[];fillColor=none;resizable=0;rotatable=0;perimeter=centerPerimeter;snapToPoint=1;strokeColor=#030303;" vertex="1" parent="1">
          <mxGeometry x="786" y="507" width="20" height="20" as="geometry" />
        </mxCell>
        <mxCell id="40hfeocLVrbNrw0ZDgmI-15" value="" style="endArrow=none;html=1;rounded=0;" edge="1" parent="1">
          <mxGeometry width="50" height="50" relative="1" as="geometry">
            <mxPoint x="519" y="568" as="sourcePoint" />
            <mxPoint x="755" y="568" as="targetPoint" />
          </mxGeometry>
        </mxCell>
        <mxCell id="40hfeocLVrbNrw0ZDgmI-16" value="" style="shape=waypoint;sketch=0;fillStyle=solid;size=6;pointerEvents=1;points=[];fillColor=none;resizable=0;rotatable=0;perimeter=centerPerimeter;snapToPoint=1;strokeColor=#030303;strokeWidth=0;" vertex="1" parent="1">
          <mxGeometry x="583" y="472" width="20" height="20" as="geometry" />
        </mxCell>
        <mxCell id="40hfeocLVrbNrw0ZDgmI-17" value="" style="shape=waypoint;sketch=0;fillStyle=solid;size=6;pointerEvents=1;points=[];fillColor=none;resizable=0;rotatable=0;perimeter=centerPerimeter;snapToPoint=1;strokeColor=#030303;strokeWidth=0;" vertex="1" parent="1">
          <mxGeometry x="513.5" y="558" width="20" height="20" as="geometry" />
        </mxCell>
        <mxCell id="40hfeocLVrbNrw0ZDgmI-19" value="" style="shape=waypoint;sketch=0;fillStyle=solid;size=6;pointerEvents=1;points=[];fillColor=none;resizable=0;rotatable=0;perimeter=centerPerimeter;snapToPoint=1;strokeColor=#030303;strokeWidth=0;" vertex="1" parent="1">
          <mxGeometry x="551" y="544" width="20" height="20" as="geometry" />
        </mxCell>
        <mxCell id="40hfeocLVrbNrw0ZDgmI-20" value="" style="endArrow=none;html=1;rounded=0;exitX=0.943;exitY=0.569;exitDx=0;exitDy=0;exitPerimeter=0;" edge="1" parent="1" source="40hfeocLVrbNrw0ZDgmI-19">
          <mxGeometry width="50" height="50" relative="1" as="geometry">
            <mxPoint x="652" y="549" as="sourcePoint" />
            <mxPoint x="796" y="554" as="targetPoint" />
          </mxGeometry>
        </mxCell>
        <mxCell id="40hfeocLVrbNrw0ZDgmI-21" value="" style="edgeStyle=orthogonalEdgeStyle;rounded=0;orthogonalLoop=1;jettySize=auto;html=1;endArrow=classic;endFill=1;" edge="1" parent="1">
          <mxGeometry relative="1" as="geometry">
            <mxPoint x="796" y="554" as="sourcePoint" />
            <mxPoint x="796" y="520" as="targetPoint" />
            <Array as="points" />
          </mxGeometry>
        </mxCell>
        <mxCell id="40hfeocLVrbNrw0ZDgmI-22" value="" style="shape=waypoint;sketch=0;fillStyle=solid;size=6;pointerEvents=1;points=[];fillColor=none;resizable=0;rotatable=0;perimeter=centerPerimeter;snapToPoint=1;strokeColor=#030303;" vertex="1" parent="1">
          <mxGeometry x="657" y="304" width="20" height="20" as="geometry" />
        </mxCell>
        <mxCell id="40hfeocLVrbNrw0ZDgmI-23" value="" style="shape=waypoint;sketch=0;fillStyle=solid;size=6;pointerEvents=1;points=[];fillColor=none;resizable=0;rotatable=0;perimeter=centerPerimeter;snapToPoint=1;strokeColor=#030303;" vertex="1" parent="1">
          <mxGeometry x="558" y="438" width="20" height="20" as="geometry" />
        </mxCell>
        <mxCell id="40hfeocLVrbNrw0ZDgmI-27" value="" style="verticalLabelPosition=bottom;verticalAlign=top;html=1;shape=mxgraph.basic.rect;fillColor2=none;strokeWidth=1;size=0;indent=5;strokeColor=none;fillColor=#000000;" vertex="1" parent="1">
          <mxGeometry x="662" y="444" width="8" height="8" as="geometry" />
        </mxCell>
        <mxCell id="40hfeocLVrbNrw0ZDgmI-28" value="&lt;font style=&quot;font-size: 10px;&quot;&gt;ALUFlags&lt;/font&gt;" style="text;whiteSpace=wrap;html=1;" vertex="1" parent="1">
          <mxGeometry x="673" y="434" width="50" height="30" as="geometry" />
        </mxCell>
        <mxCell id="40hfeocLVrbNrw0ZDgmI-29" value="&lt;font style=&quot;font-size: 10px;&quot;&gt;ALUFlags&lt;/font&gt;" style="text;whiteSpace=wrap;html=1;" vertex="1" parent="1">
          <mxGeometry x="516.5" y="433" width="50" height="30" as="geometry" />
        </mxCell>
        <mxCell id="24EktJatblv8g76flOpL-1" value="&lt;font color=&quot;#000000&quot; style=&quot;font-size: 9px;&quot;&gt;4&lt;br&gt;&lt;/font&gt;" style="text;html=1;strokeColor=none;fillColor=none;align=center;verticalAlign=middle;whiteSpace=wrap;rounded=0;" vertex="1" parent="1">
          <mxGeometry x="630" y="429" width="12" height="14" as="geometry" />
        </mxCell>
        <mxCell id="24EktJatblv8g76flOpL-2" value="" style="endArrow=none;html=1;rounded=0;strokeColor=#18141d;" edge="1" parent="1">
          <mxGeometry width="50" height="50" relative="1" as="geometry">
            <mxPoint x="630" y="454" as="sourcePoint" />
            <mxPoint x="642" y="442" as="targetPoint" />
          </mxGeometry>
        </mxCell>
        <mxCell id="24EktJatblv8g76flOpL-3" value="" style="edgeStyle=orthogonalEdgeStyle;rounded=0;orthogonalLoop=1;jettySize=auto;html=1;endArrow=classic;endFill=1;exitX=1.042;exitY=0.646;exitDx=0;exitDy=0;exitPerimeter=0;entryX=0.317;entryY=0.542;entryDx=0;entryDy=0;entryPerimeter=0;" edge="1" parent="1">
          <mxGeometry relative="1" as="geometry">
            <mxPoint x="570.3360000000002" y="413.168" as="sourcePoint" />
            <mxPoint x="663.9999999999998" y="411.0000000000001" as="targetPoint" />
            <Array as="points">
              <mxPoint x="570" y="411" />
            </Array>
          </mxGeometry>
        </mxCell>
        <mxCell id="24EktJatblv8g76flOpL-4" value="" style="verticalLabelPosition=bottom;verticalAlign=top;html=1;shape=mxgraph.basic.rect;fillColor2=none;strokeWidth=1;size=0;indent=5;strokeColor=none;fillColor=#000000;" vertex="1" parent="1">
          <mxGeometry x="565" y="407" width="8" height="8" as="geometry" />
        </mxCell>
        <mxCell id="24EktJatblv8g76flOpL-5" value="" style="shape=waypoint;sketch=0;fillStyle=solid;size=6;pointerEvents=1;points=[];fillColor=none;resizable=0;rotatable=0;perimeter=centerPerimeter;snapToPoint=1;strokeColor=#030303;" vertex="1" parent="1">
          <mxGeometry x="657" y="401" width="20" height="20" as="geometry" />
        </mxCell>
        <mxCell id="24EktJatblv8g76flOpL-6" value="&lt;font style=&quot;font-size: 10px;&quot;&gt;RegWrite&lt;/font&gt;" style="text;whiteSpace=wrap;html=1;" vertex="1" parent="1">
          <mxGeometry x="519" y="395" width="50" height="30" as="geometry" />
        </mxCell>
        <mxCell id="24EktJatblv8g76flOpL-7" value="&lt;font style=&quot;font-size: 10px;&quot;&gt;RegWrite&lt;/font&gt;" style="text;whiteSpace=wrap;html=1;" vertex="1" parent="1">
          <mxGeometry x="671" y="395" width="50" height="30" as="geometry" />
        </mxCell>
        <mxCell id="24EktJatblv8g76flOpL-8" value="" style="verticalLabelPosition=bottom;verticalAlign=top;html=1;shape=mxgraph.basic.rect;fillColor2=none;strokeWidth=1;size=0;indent=5;strokeColor=none;fillColor=#000000;" vertex="1" parent="1">
          <mxGeometry x="565" y="375" width="8" height="8" as="geometry" />
        </mxCell>
        <mxCell id="24EktJatblv8g76flOpL-10" value="" style="edgeStyle=orthogonalEdgeStyle;rounded=0;orthogonalLoop=1;jettySize=auto;html=1;endArrow=classic;endFill=1;exitX=0.764;exitY=0.632;exitDx=0;exitDy=0;exitPerimeter=0;" edge="1" parent="1">
          <mxGeometry relative="1" as="geometry">
            <mxPoint x="568.1119999999999" y="380.0559999999999" as="sourcePoint" />
            <mxPoint x="664" y="379" as="targetPoint" />
            <Array as="points">
              <mxPoint x="568" y="379" />
            </Array>
          </mxGeometry>
        </mxCell>
        <mxCell id="24EktJatblv8g76flOpL-11" value="&lt;font style=&quot;font-size: 10px;&quot;&gt;ALUSrc&lt;/font&gt;" style="text;whiteSpace=wrap;html=1;" vertex="1" parent="1">
          <mxGeometry x="526" y="363" width="45" height="25" as="geometry" />
        </mxCell>
        <mxCell id="24EktJatblv8g76flOpL-12" value="&lt;font style=&quot;font-size: 10px;&quot;&gt;ALUSrc&lt;/font&gt;" style="text;whiteSpace=wrap;html=1;" vertex="1" parent="1">
          <mxGeometry x="671" y="364" width="45" height="25" as="geometry" />
        </mxCell>
        <mxCell id="24EktJatblv8g76flOpL-13" value="" style="verticalLabelPosition=bottom;verticalAlign=top;html=1;shape=mxgraph.basic.rect;fillColor2=none;strokeWidth=1;size=0;indent=5;strokeColor=none;fillColor=#000000;" vertex="1" parent="1">
          <mxGeometry x="565" y="340" width="8" height="8" as="geometry" />
        </mxCell>
        <mxCell id="24EktJatblv8g76flOpL-14" value="" style="shape=waypoint;sketch=0;fillStyle=solid;size=6;pointerEvents=1;points=[];fillColor=none;resizable=0;rotatable=0;perimeter=centerPerimeter;snapToPoint=1;strokeColor=#030303;" vertex="1" parent="1">
          <mxGeometry x="657" y="334" width="20" height="20" as="geometry" />
        </mxCell>
        <mxCell id="24EktJatblv8g76flOpL-16" value="" style="edgeStyle=orthogonalEdgeStyle;rounded=0;orthogonalLoop=1;jettySize=auto;html=1;endArrow=classic;endFill=1;exitX=0.707;exitY=0.493;exitDx=0;exitDy=0;exitPerimeter=0;" edge="1" parent="1">
          <mxGeometry relative="1" as="geometry">
            <mxPoint x="567.6560000000002" y="343.9440000000001" as="sourcePoint" />
            <mxPoint x="664" y="344" as="targetPoint" />
            <Array as="points" />
          </mxGeometry>
        </mxCell>
        <mxCell id="24EktJatblv8g76flOpL-17" value="&lt;font style=&quot;font-size: 10px;&quot;&gt;MemtoReg&lt;/font&gt;" style="text;whiteSpace=wrap;html=1;" vertex="1" parent="1">
          <mxGeometry x="511" y="329" width="51.5" height="25" as="geometry" />
        </mxCell>
        <mxCell id="24EktJatblv8g76flOpL-18" value="&lt;font style=&quot;font-size: 10px;&quot;&gt;MemtoReg&lt;/font&gt;" style="text;whiteSpace=wrap;html=1;" vertex="1" parent="1">
          <mxGeometry x="669.5" y="329" width="53" height="25" as="geometry" />
        </mxCell>
        <mxCell id="24EktJatblv8g76flOpL-19" value="&lt;font style=&quot;font-size: 10px;&quot;&gt;PCSrc&lt;/font&gt;" style="text;whiteSpace=wrap;html=1;" vertex="1" parent="1">
          <mxGeometry x="671" y="299" width="40" height="30" as="geometry" />
        </mxCell>
        <mxCell id="24EktJatblv8g76flOpL-21" value="&lt;font style=&quot;font-size: 10px;&quot;&gt;PCSrc&lt;/font&gt;" style="text;whiteSpace=wrap;html=1;" vertex="1" parent="1">
          <mxGeometry x="531" y="299" width="40" height="30" as="geometry" />
        </mxCell>
        <mxCell id="24EktJatblv8g76flOpL-22" value="" style="verticalLabelPosition=bottom;verticalAlign=top;html=1;shape=mxgraph.basic.rect;fillColor2=none;strokeWidth=1;size=0;indent=5;strokeColor=none;fillColor=#000000;" vertex="1" parent="1">
          <mxGeometry x="564.5" y="310" width="8" height="8" as="geometry" />
        </mxCell>
        <mxCell id="24EktJatblv8g76flOpL-23" value="" style="edgeStyle=orthogonalEdgeStyle;rounded=0;orthogonalLoop=1;jettySize=auto;html=1;endArrow=classic;endFill=1;exitX=1.227;exitY=0.529;exitDx=0;exitDy=0;exitPerimeter=0;" edge="1" parent="1">
          <mxGeometry relative="1" as="geometry">
            <mxPoint x="571.316" y="314.23199999999997" as="sourcePoint" />
            <mxPoint x="664" y="314" as="targetPoint" />
            <Array as="points" />
          </mxGeometry>
        </mxCell>
        <mxCell id="24EktJatblv8g76flOpL-24" value="&lt;font style=&quot;font-size: 10px;&quot;&gt;RegSrc&lt;/font&gt;" style="text;whiteSpace=wrap;html=1;" vertex="1" parent="1">
          <mxGeometry x="818" y="490" width="70" height="40" as="geometry" />
        </mxCell>
        <mxCell id="24EktJatblv8g76flOpL-25" value="&lt;font style=&quot;font-size: 10px;&quot;&gt;RegSrc&lt;/font&gt;" style="text;whiteSpace=wrap;html=1;" vertex="1" parent="1">
          <mxGeometry x="350" y="493" width="70" height="40" as="geometry" />
        </mxCell>
        <mxCell id="24EktJatblv8g76flOpL-26" value="&lt;font style=&quot;font-size: 10px;&quot;&gt;ImmSrc&lt;/font&gt;" style="text;whiteSpace=wrap;html=1;" vertex="1" parent="1">
          <mxGeometry x="684.5" y="491" width="70" height="40" as="geometry" />
        </mxCell>
        <mxCell id="24EktJatblv8g76flOpL-27" value="&lt;font style=&quot;font-size: 10px;&quot;&gt;ImmSrc&lt;/font&gt;" style="text;whiteSpace=wrap;html=1;" vertex="1" parent="1">
          <mxGeometry x="411" y="493" width="39" height="27" as="geometry" />
        </mxCell>
        <mxCell id="24EktJatblv8g76flOpL-28" value="&lt;font style=&quot;font-size: 10px;&quot;&gt;ALUControl&lt;/font&gt;" style="text;whiteSpace=wrap;html=1;" vertex="1" parent="1">
          <mxGeometry x="837" y="295" width="100" height="40" as="geometry" />
        </mxCell>
        <mxCell id="24EktJatblv8g76flOpL-29" value="&lt;font style=&quot;font-size: 10px;&quot;&gt;ALUControl&lt;/font&gt;" style="text;whiteSpace=wrap;html=1;" vertex="1" parent="1">
          <mxGeometry x="343" y="300" width="100" height="40" as="geometry" />
        </mxCell>
        <mxCell id="yk_FBiP_zFwJzW1G7NZg-1" value="" style="verticalLabelPosition=bottom;verticalAlign=top;html=1;shape=mxgraph.basic.rect;fillColor2=none;strokeWidth=1;size=0;indent=5;strokeColor=none;fillColor=#000000;" vertex="1" parent="1">
          <mxGeometry x="364.5" y="523" width="8" height="8" as="geometry" />
        </mxCell>
        <mxCell id="yk_FBiP_zFwJzW1G7NZg-2" value="" style="verticalLabelPosition=bottom;verticalAlign=top;html=1;shape=mxgraph.basic.rect;fillColor2=none;strokeWidth=1;size=0;indent=5;strokeColor=none;fillColor=#000000;" vertex="1" parent="1">
          <mxGeometry x="427" y="523" width="8" height="8" as="geometry" />
        </mxCell>
        <mxCell id="yk_FBiP_zFwJzW1G7NZg-3" value="" style="verticalLabelPosition=bottom;verticalAlign=top;html=1;shape=mxgraph.basic.rect;fillColor2=none;strokeWidth=1;size=0;indent=5;strokeColor=none;fillColor=#000000;" vertex="1" parent="1">
          <mxGeometry x="364.5" y="290" width="8" height="8" as="geometry" />
        </mxCell>
        <mxCell id="yk_FBiP_zFwJzW1G7NZg-4" value="" style="shape=waypoint;sketch=0;fillStyle=solid;size=6;pointerEvents=1;points=[];fillColor=none;resizable=0;rotatable=0;perimeter=centerPerimeter;snapToPoint=1;strokeColor=#030303;" vertex="1" parent="1">
          <mxGeometry x="851" y="282" width="20" height="20" as="geometry" />
        </mxCell>
        <mxCell id="yk_FBiP_zFwJzW1G7NZg-5" value="" style="shape=waypoint;sketch=0;fillStyle=solid;size=6;pointerEvents=1;points=[];fillColor=none;resizable=0;rotatable=0;perimeter=centerPerimeter;snapToPoint=1;strokeColor=#030303;" vertex="1" parent="1">
          <mxGeometry x="826" y="513" width="20" height="20" as="geometry" />
        </mxCell>
        <mxCell id="yk_FBiP_zFwJzW1G7NZg-6" value="" style="shape=waypoint;sketch=0;fillStyle=solid;size=6;pointerEvents=1;points=[];fillColor=none;resizable=0;rotatable=0;perimeter=centerPerimeter;snapToPoint=1;strokeColor=#030303;" vertex="1" parent="1">
          <mxGeometry x="692" y="513" width="20" height="20" as="geometry" />
        </mxCell>
        <mxCell id="yk_FBiP_zFwJzW1G7NZg-8" value="" style="edgeStyle=orthogonalEdgeStyle;rounded=0;orthogonalLoop=1;jettySize=auto;html=1;endArrow=classic;endFill=1;entryX=0.744;entryY=0.138;entryDx=0;entryDy=0;entryPerimeter=0;" edge="1" parent="1">
          <mxGeometry relative="1" as="geometry">
            <mxPoint x="369" y="291.1039999999999" as="sourcePoint" />
            <mxPoint x="861" y="292" as="targetPoint" />
            <Array as="points">
              <mxPoint x="368" y="270" />
              <mxPoint x="861" y="270" />
            </Array>
          </mxGeometry>
        </mxCell>
        <mxCell id="yk_FBiP_zFwJzW1G7NZg-9" value="" style="edgeStyle=orthogonalEdgeStyle;rounded=0;orthogonalLoop=1;jettySize=auto;html=1;endArrow=classic;endFill=1;entryX=0.698;entryY=1.289;entryDx=0;entryDy=0;entryPerimeter=0;" edge="1" parent="1">
          <mxGeometry relative="1" as="geometry">
            <mxPoint x="432" y="531" as="sourcePoint" />
            <mxPoint x="702" y="525.0000000000001" as="targetPoint" />
            <Array as="points">
              <mxPoint x="431" y="580" />
              <mxPoint x="702" y="580" />
            </Array>
          </mxGeometry>
        </mxCell>
        <mxCell id="yk_FBiP_zFwJzW1G7NZg-10" value="" style="endArrow=none;html=1;rounded=0;strokeColor=#18141d;" edge="1" parent="1">
          <mxGeometry width="50" height="50" relative="1" as="geometry">
            <mxPoint x="613" y="276" as="sourcePoint" />
            <mxPoint x="625" y="264" as="targetPoint" />
          </mxGeometry>
        </mxCell>
        <mxCell id="yk_FBiP_zFwJzW1G7NZg-11" value="&lt;font color=&quot;#000000&quot; style=&quot;font-size: 9px;&quot;&gt;2&lt;br&gt;&lt;/font&gt;" style="text;html=1;strokeColor=none;fillColor=none;align=center;verticalAlign=middle;whiteSpace=wrap;rounded=0;" vertex="1" parent="1">
          <mxGeometry x="612" y="253" width="12" height="14" as="geometry" />
        </mxCell>
        <mxCell id="yk_FBiP_zFwJzW1G7NZg-12" value="" style="endArrow=none;html=1;rounded=0;strokeColor=#18141d;" edge="1" parent="1">
          <mxGeometry width="50" height="50" relative="1" as="geometry">
            <mxPoint x="464" y="586" as="sourcePoint" />
            <mxPoint x="476" y="574" as="targetPoint" />
          </mxGeometry>
        </mxCell>
        <mxCell id="yk_FBiP_zFwJzW1G7NZg-13" value="&lt;font color=&quot;#000000&quot; style=&quot;font-size: 9px;&quot;&gt;2&lt;br&gt;&lt;/font&gt;" style="text;html=1;strokeColor=none;fillColor=none;align=center;verticalAlign=middle;whiteSpace=wrap;rounded=0;" vertex="1" parent="1">
          <mxGeometry x="463" y="564" width="12" height="14" as="geometry" />
        </mxCell>
        <mxCell id="yk_FBiP_zFwJzW1G7NZg-15" value="" style="edgeStyle=orthogonalEdgeStyle;rounded=0;orthogonalLoop=1;jettySize=auto;html=1;endArrow=classic;endFill=1;exitX=0.468;exitY=0.875;exitDx=0;exitDy=0;exitPerimeter=0;" edge="1" parent="1" source="yk_FBiP_zFwJzW1G7NZg-1" target="yk_FBiP_zFwJzW1G7NZg-5">
          <mxGeometry relative="1" as="geometry">
            <mxPoint x="364.5" y="578" as="sourcePoint" />
            <mxPoint x="459.164" y="578.1680000000001" as="targetPoint" />
            <Array as="points">
              <mxPoint x="368" y="600" />
              <mxPoint x="836" y="600" />
            </Array>
          </mxGeometry>
        </mxCell>
        <mxCell id="yk_FBiP_zFwJzW1G7NZg-16" value="&lt;font color=&quot;#000000&quot; style=&quot;font-size: 9px;&quot;&gt;2&lt;br&gt;&lt;/font&gt;" style="text;html=1;strokeColor=none;fillColor=none;align=center;verticalAlign=middle;whiteSpace=wrap;rounded=0;" vertex="1" parent="1">
          <mxGeometry x="752" y="583" width="12" height="14" as="geometry" />
        </mxCell>
        <mxCell id="yk_FBiP_zFwJzW1G7NZg-17" value="" style="endArrow=none;html=1;rounded=0;strokeColor=#18141d;" edge="1" parent="1">
          <mxGeometry width="50" height="50" relative="1" as="geometry">
            <mxPoint x="752" y="606" as="sourcePoint" />
            <mxPoint x="764" y="594" as="targetPoint" />
          </mxGeometry>
        </mxCell>
      </root>
    </mxGraphModel>
  </diagram>
  <diagram id="prtHgNgQTEPvFCAcTncT" name="TESTBENCH">
    <mxGraphModel dx="1248" dy="606" grid="0" gridSize="10" guides="1" tooltips="1" connect="1" arrows="1" fold="1" page="1" pageScale="1" pageWidth="1169" pageHeight="827" background="#ffffff" math="0" shadow="0">
      <root>
        <mxCell id="0" />
        <mxCell id="1" parent="0" />
        <mxCell id="hP97mkHx6P7PBGincPtf-4" value="&#xa;&lt;span style=&quot;color: rgb(0, 0, 0); font-family: Helvetica; font-size: 6px; font-style: normal; font-variant-ligatures: normal; font-variant-caps: normal; font-weight: 400; letter-spacing: normal; orphans: 2; text-align: center; text-indent: 0px; text-transform: none; widows: 2; word-spacing: 0px; -webkit-text-stroke-width: 0px; background-color: rgb(42, 37, 47); text-decoration-thickness: initial; text-decoration-style: initial; text-decoration-color: initial; float: none; display: inline !important;&quot;&gt;32&lt;/span&gt;&#xa;&#xa;" style="rounded=0;whiteSpace=wrap;html=1;fillColor=#f5f5f5;fontColor=#333333;strokeColor=#666666;" parent="1" vertex="1">
          <mxGeometry x="282" y="217" width="658" height="410" as="geometry" />
        </mxCell>
        <mxCell id="hP97mkHx6P7PBGincPtf-7" value="&lt;b&gt;&lt;font color=&quot;#000000&quot; style=&quot;font-size: 19px;&quot;&gt;TESTBENCH&lt;/font&gt;&lt;/b&gt;" style="text;html=1;strokeColor=none;fillColor=none;align=center;verticalAlign=middle;whiteSpace=wrap;rounded=0;" parent="1" vertex="1">
          <mxGeometry x="562" y="189" width="131" height="40" as="geometry" />
        </mxCell>
        <mxCell id="hP97mkHx6P7PBGincPtf-8" value="" style="whiteSpace=wrap;html=1;aspect=fixed;fillColor=#f5f5f5;fontColor=#333333;strokeColor=#666666;" parent="1" vertex="1">
          <mxGeometry x="471" y="270" width="304" height="304" as="geometry" />
        </mxCell>
        <mxCell id="hP97mkHx6P7PBGincPtf-9" value="&lt;b&gt;&lt;font color=&quot;#000000&quot; style=&quot;font-size: 15px;&quot;&gt;DUT(TOP)&lt;/font&gt;&lt;/b&gt;" style="text;html=1;strokeColor=none;fillColor=none;align=center;verticalAlign=middle;whiteSpace=wrap;rounded=0;" parent="1" vertex="1">
          <mxGeometry x="540" y="383" width="166" height="42" as="geometry" />
        </mxCell>
        <mxCell id="hP97mkHx6P7PBGincPtf-12" value="" style="shape=waypoint;sketch=0;fillStyle=solid;size=6;pointerEvents=1;points=[];fillColor=none;resizable=0;rotatable=0;perimeter=centerPerimeter;snapToPoint=1;strokeColor=#030303;" parent="1" vertex="1">
          <mxGeometry x="457" y="318" width="20" height="20" as="geometry" />
        </mxCell>
        <mxCell id="hP97mkHx6P7PBGincPtf-13" value="" style="shape=waypoint;sketch=0;fillStyle=solid;size=6;pointerEvents=1;points=[];fillColor=none;resizable=0;rotatable=0;perimeter=centerPerimeter;snapToPoint=1;strokeColor=#030303;" parent="1" vertex="1">
          <mxGeometry x="457" y="363" width="20" height="20" as="geometry" />
        </mxCell>
        <mxCell id="hP97mkHx6P7PBGincPtf-18" value="&lt;span style=&quot;font-size: 11px;&quot;&gt;CLK&lt;/span&gt;" style="text;html=1;strokeColor=none;fillColor=none;align=center;verticalAlign=middle;whiteSpace=wrap;rounded=0;" parent="1" vertex="1">
          <mxGeometry x="471" y="316" width="27" height="24" as="geometry" />
        </mxCell>
        <mxCell id="hP97mkHx6P7PBGincPtf-19" value="&lt;font color=&quot;#000000&quot; style=&quot;font-size: 11px;&quot;&gt;RESET&lt;/font&gt;" style="text;html=1;strokeColor=none;fillColor=none;align=center;verticalAlign=middle;whiteSpace=wrap;rounded=0;" parent="1" vertex="1">
          <mxGeometry x="471" y="361" width="43" height="24" as="geometry" />
        </mxCell>
        <mxCell id="hP97mkHx6P7PBGincPtf-21" value="" style="verticalLabelPosition=bottom;verticalAlign=top;html=1;shape=mxgraph.basic.rect;fillColor2=none;strokeWidth=1;size=0;indent=5;strokeColor=none;fillColor=#000000;" parent="1" vertex="1">
          <mxGeometry x="775" y="324" width="8" height="8" as="geometry" />
        </mxCell>
        <mxCell id="hP97mkHx6P7PBGincPtf-22" value="" style="verticalLabelPosition=bottom;verticalAlign=top;html=1;shape=mxgraph.basic.rect;fillColor2=none;strokeWidth=1;size=0;indent=5;strokeColor=none;fillColor=#000000;" parent="1" vertex="1">
          <mxGeometry x="775" y="365" width="8" height="8" as="geometry" />
        </mxCell>
        <mxCell id="hP97mkHx6P7PBGincPtf-23" value="" style="verticalLabelPosition=bottom;verticalAlign=top;html=1;shape=mxgraph.basic.rect;fillColor2=none;strokeWidth=1;size=0;indent=5;strokeColor=none;fillColor=#000000;" parent="1" vertex="1">
          <mxGeometry x="775" y="405" width="8" height="8" as="geometry" />
        </mxCell>
        <mxCell id="hP97mkHx6P7PBGincPtf-24" value="&lt;font color=&quot;#000000&quot; style=&quot;font-size: 11px;&quot;&gt;WriteData&lt;/font&gt;" style="text;html=1;strokeColor=none;fillColor=none;align=center;verticalAlign=middle;whiteSpace=wrap;rounded=0;" parent="1" vertex="1">
          <mxGeometry x="723" y="316" width="49" height="24" as="geometry" />
        </mxCell>
        <mxCell id="hP97mkHx6P7PBGincPtf-25" value="&lt;font color=&quot;#000000&quot; style=&quot;font-size: 11px;&quot;&gt;DataAdr&lt;/font&gt;" style="text;html=1;strokeColor=none;fillColor=none;align=center;verticalAlign=middle;whiteSpace=wrap;rounded=0;" parent="1" vertex="1">
          <mxGeometry x="729" y="357" width="43" height="24" as="geometry" />
        </mxCell>
        <mxCell id="hP97mkHx6P7PBGincPtf-26" value="&lt;font color=&quot;#000000&quot; style=&quot;font-size: 11px;&quot;&gt;MemWrite&lt;/font&gt;" style="text;html=1;strokeColor=none;fillColor=none;align=center;verticalAlign=middle;whiteSpace=wrap;rounded=0;" parent="1" vertex="1">
          <mxGeometry x="721" y="397" width="51" height="24" as="geometry" />
        </mxCell>
        <mxCell id="hP97mkHx6P7PBGincPtf-31" value="" style="endArrow=classic;html=1;rounded=0;strokeColor=#080808;" parent="1" edge="1">
          <mxGeometry relative="1" as="geometry">
            <mxPoint x="386" y="328" as="sourcePoint" />
            <mxPoint x="464" y="327.58" as="targetPoint" />
          </mxGeometry>
        </mxCell>
        <mxCell id="hP97mkHx6P7PBGincPtf-34" value="" style="endArrow=classic;html=1;rounded=0;strokeColor=#080808;" parent="1" edge="1">
          <mxGeometry relative="1" as="geometry">
            <mxPoint x="385" y="373" as="sourcePoint" />
            <mxPoint x="464" y="372.99999999999994" as="targetPoint" />
          </mxGeometry>
        </mxCell>
        <mxCell id="hP97mkHx6P7PBGincPtf-35" value="" style="endArrow=classic;html=1;rounded=0;strokeColor=#18141d;" parent="1" edge="1">
          <mxGeometry relative="1" as="geometry">
            <mxPoint x="783" y="327.78999999999996" as="sourcePoint" />
            <mxPoint x="852" y="328.21" as="targetPoint" />
          </mxGeometry>
        </mxCell>
        <mxCell id="hP97mkHx6P7PBGincPtf-36" value="" style="endArrow=classic;html=1;rounded=0;strokeColor=#18141d;" parent="1" edge="1">
          <mxGeometry relative="1" as="geometry">
            <mxPoint x="783" y="368.78999999999996" as="sourcePoint" />
            <mxPoint x="852" y="369.21" as="targetPoint" />
          </mxGeometry>
        </mxCell>
        <mxCell id="hP97mkHx6P7PBGincPtf-37" value="" style="endArrow=classic;html=1;rounded=0;strokeColor=#18141d;" parent="1" edge="1">
          <mxGeometry relative="1" as="geometry">
            <mxPoint x="783" y="408.78999999999996" as="sourcePoint" />
            <mxPoint x="852" y="409.21" as="targetPoint" />
          </mxGeometry>
        </mxCell>
        <mxCell id="hP97mkHx6P7PBGincPtf-39" value="" style="endArrow=none;html=1;rounded=0;strokeColor=#18141d;" parent="1" edge="1">
          <mxGeometry width="50" height="50" relative="1" as="geometry">
            <mxPoint x="818" y="375" as="sourcePoint" />
            <mxPoint x="830" y="363" as="targetPoint" />
          </mxGeometry>
        </mxCell>
        <mxCell id="hP97mkHx6P7PBGincPtf-40" value="" style="endArrow=none;html=1;rounded=0;strokeColor=#18141d;" parent="1" edge="1">
          <mxGeometry width="50" height="50" relative="1" as="geometry">
            <mxPoint x="819" y="334" as="sourcePoint" />
            <mxPoint x="831" y="322" as="targetPoint" />
          </mxGeometry>
        </mxCell>
        <mxCell id="hP97mkHx6P7PBGincPtf-44" value="&lt;font color=&quot;#000000&quot; style=&quot;font-size: 11px;&quot;&gt;32&lt;/font&gt;" style="text;html=1;strokeColor=none;fillColor=none;align=center;verticalAlign=middle;whiteSpace=wrap;rounded=0;" parent="1" vertex="1">
          <mxGeometry x="824.5" y="306" width="12" height="14" as="geometry" />
        </mxCell>
        <mxCell id="hP97mkHx6P7PBGincPtf-46" value="&lt;font color=&quot;#000000&quot; style=&quot;font-size: 11px;&quot;&gt;32&lt;/font&gt;" style="text;html=1;strokeColor=none;fillColor=none;align=center;verticalAlign=middle;whiteSpace=wrap;rounded=0;" parent="1" vertex="1">
          <mxGeometry x="824.5" y="349" width="12" height="14" as="geometry" />
        </mxCell>
      </root>
    </mxGraphModel>
  </diagram>
  <diagram id="F_olJg4_l9VPDOMAfjfq" name="DUT(TOP)">
    <mxGraphModel dx="1248" dy="606" grid="0" gridSize="10" guides="1" tooltips="1" connect="1" arrows="1" fold="1" page="1" pageScale="1" pageWidth="1169" pageHeight="827" math="0" shadow="0">
      <root>
        <mxCell id="0" />
        <mxCell id="1" parent="0" />
        <mxCell id="rDjfU8Yx-AFuf_76eB-S-1" value="&#xa;&lt;span style=&quot;color: rgb(0, 0, 0); font-family: Helvetica; font-size: 6px; font-style: normal; font-variant-ligatures: normal; font-variant-caps: normal; font-weight: 400; letter-spacing: normal; orphans: 2; text-align: center; text-indent: 0px; text-transform: none; widows: 2; word-spacing: 0px; -webkit-text-stroke-width: 0px; background-color: rgb(42, 37, 47); text-decoration-thickness: initial; text-decoration-style: initial; text-decoration-color: initial; float: none; display: inline !important;&quot;&gt;32&lt;/span&gt;&#xa;&#xa;" style="rounded=0;whiteSpace=wrap;html=1;fillColor=#f5f5f5;fontColor=#333333;strokeColor=#666666;" parent="1" vertex="1">
          <mxGeometry x="282" y="217" width="658" height="410" as="geometry" />
        </mxCell>
        <mxCell id="rDjfU8Yx-AFuf_76eB-S-3" value="" style="whiteSpace=wrap;html=1;aspect=fixed;fillColor=#f5f5f5;fontColor=#333333;strokeColor=#666666;" parent="1" vertex="1">
          <mxGeometry x="500" y="259" width="222" height="222" as="geometry" />
        </mxCell>
        <mxCell id="rDjfU8Yx-AFuf_76eB-S-4" value="&lt;b&gt;&lt;font color=&quot;#000000&quot; style=&quot;font-size: 15px;&quot;&gt;DUT(TOP)&lt;/font&gt;&lt;/b&gt;" style="text;html=1;strokeColor=none;fillColor=none;align=center;verticalAlign=middle;whiteSpace=wrap;rounded=0;" parent="1" vertex="1">
          <mxGeometry x="528" y="193" width="166" height="24" as="geometry" />
        </mxCell>
        <mxCell id="rDjfU8Yx-AFuf_76eB-S-5" value="" style="shape=waypoint;sketch=0;fillStyle=solid;size=6;pointerEvents=1;points=[];fillColor=none;resizable=0;rotatable=0;perimeter=centerPerimeter;snapToPoint=1;strokeColor=#030303;" parent="1" vertex="1">
          <mxGeometry x="269" y="318" width="20" height="20" as="geometry" />
        </mxCell>
        <mxCell id="rDjfU8Yx-AFuf_76eB-S-6" value="" style="shape=waypoint;sketch=0;fillStyle=solid;size=6;pointerEvents=1;points=[];fillColor=none;resizable=0;rotatable=0;perimeter=centerPerimeter;snapToPoint=1;strokeColor=#030303;" parent="1" vertex="1">
          <mxGeometry x="269" y="373" width="20" height="20" as="geometry" />
        </mxCell>
        <mxCell id="rDjfU8Yx-AFuf_76eB-S-7" value="&lt;span style=&quot;font-size: 11px;&quot;&gt;CLK&lt;/span&gt;" style="text;html=1;strokeColor=none;fillColor=none;align=center;verticalAlign=middle;whiteSpace=wrap;rounded=0;" parent="1" vertex="1">
          <mxGeometry x="167" y="316" width="30" height="24" as="geometry" />
        </mxCell>
        <mxCell id="rDjfU8Yx-AFuf_76eB-S-8" value="&lt;font color=&quot;#000000&quot; style=&quot;font-size: 11px;&quot;&gt;RESET&lt;/font&gt;" style="text;html=1;strokeColor=none;fillColor=none;align=center;verticalAlign=middle;whiteSpace=wrap;rounded=0;" parent="1" vertex="1">
          <mxGeometry x="154" y="369" width="43" height="24" as="geometry" />
        </mxCell>
        <mxCell id="rDjfU8Yx-AFuf_76eB-S-9" value="" style="verticalLabelPosition=bottom;verticalAlign=top;html=1;shape=mxgraph.basic.rect;fillColor2=none;strokeWidth=1;size=0;indent=5;strokeColor=none;fillColor=#000000;" parent="1" vertex="1">
          <mxGeometry x="940" y="322" width="8" height="8" as="geometry" />
        </mxCell>
        <mxCell id="rDjfU8Yx-AFuf_76eB-S-10" value="" style="verticalLabelPosition=bottom;verticalAlign=top;html=1;shape=mxgraph.basic.rect;fillColor2=none;strokeWidth=1;size=0;indent=5;strokeColor=none;fillColor=#000000;" parent="1" vertex="1">
          <mxGeometry x="940" y="363" width="8" height="8" as="geometry" />
        </mxCell>
        <mxCell id="rDjfU8Yx-AFuf_76eB-S-11" value="" style="verticalLabelPosition=bottom;verticalAlign=top;html=1;shape=mxgraph.basic.rect;fillColor2=none;strokeWidth=1;size=0;indent=5;strokeColor=none;fillColor=#000000;" parent="1" vertex="1">
          <mxGeometry x="940" y="401" width="8" height="8" as="geometry" />
        </mxCell>
        <mxCell id="rDjfU8Yx-AFuf_76eB-S-12" value="&lt;font color=&quot;#000000&quot; style=&quot;font-size: 11px;&quot;&gt;WriteData&lt;/font&gt;" style="text;html=1;strokeColor=none;fillColor=none;align=center;verticalAlign=middle;whiteSpace=wrap;rounded=0;" parent="1" vertex="1">
          <mxGeometry x="1081" y="314" width="49" height="24" as="geometry" />
        </mxCell>
        <mxCell id="rDjfU8Yx-AFuf_76eB-S-13" value="&lt;font color=&quot;#000000&quot; style=&quot;font-size: 11px;&quot;&gt;DataAdr&lt;/font&gt;" style="text;html=1;strokeColor=none;fillColor=none;align=center;verticalAlign=middle;whiteSpace=wrap;rounded=0;" parent="1" vertex="1">
          <mxGeometry x="1081" y="355" width="43" height="24" as="geometry" />
        </mxCell>
        <mxCell id="rDjfU8Yx-AFuf_76eB-S-14" value="&lt;font color=&quot;#000000&quot; style=&quot;font-size: 11px;&quot;&gt;MemWrite&lt;/font&gt;" style="text;html=1;strokeColor=none;fillColor=none;align=center;verticalAlign=middle;whiteSpace=wrap;rounded=0;" parent="1" vertex="1">
          <mxGeometry x="1081" y="390" width="51" height="24" as="geometry" />
        </mxCell>
        <mxCell id="rDjfU8Yx-AFuf_76eB-S-15" value="" style="endArrow=classic;html=1;rounded=0;strokeColor=#080808;" parent="1" edge="1">
          <mxGeometry relative="1" as="geometry">
            <mxPoint x="198" y="328.04999999999995" as="sourcePoint" />
            <mxPoint x="276" y="327.62999999999994" as="targetPoint" />
          </mxGeometry>
        </mxCell>
        <mxCell id="rDjfU8Yx-AFuf_76eB-S-16" value="" style="endArrow=classic;html=1;rounded=0;strokeColor=#080808;" parent="1" edge="1">
          <mxGeometry relative="1" as="geometry">
            <mxPoint x="197" y="382.82" as="sourcePoint" />
            <mxPoint x="276" y="382.81999999999994" as="targetPoint" />
          </mxGeometry>
        </mxCell>
        <mxCell id="rDjfU8Yx-AFuf_76eB-S-17" value="" style="endArrow=classic;html=1;rounded=0;strokeColor=#18141d;" parent="1" edge="1">
          <mxGeometry relative="1" as="geometry">
            <mxPoint x="948" y="325.85999999999996" as="sourcePoint" />
            <mxPoint x="1075" y="326" as="targetPoint" />
          </mxGeometry>
        </mxCell>
        <mxCell id="rDjfU8Yx-AFuf_76eB-S-18" value="" style="endArrow=classic;html=1;rounded=0;strokeColor=#18141d;" parent="1" edge="1">
          <mxGeometry relative="1" as="geometry">
            <mxPoint x="948" y="366.39" as="sourcePoint" />
            <mxPoint x="1075" y="367" as="targetPoint" />
          </mxGeometry>
        </mxCell>
        <mxCell id="rDjfU8Yx-AFuf_76eB-S-19" value="" style="endArrow=classic;html=1;rounded=0;strokeColor=#18141d;" parent="1" edge="1">
          <mxGeometry relative="1" as="geometry">
            <mxPoint x="948" y="404.85999999999996" as="sourcePoint" />
            <mxPoint x="1075" y="405" as="targetPoint" />
          </mxGeometry>
        </mxCell>
        <mxCell id="rDjfU8Yx-AFuf_76eB-S-20" value="" style="endArrow=none;html=1;rounded=0;strokeColor=#18141d;" parent="1" edge="1">
          <mxGeometry width="50" height="50" relative="1" as="geometry">
            <mxPoint x="1036" y="373" as="sourcePoint" />
            <mxPoint x="1048" y="361" as="targetPoint" />
          </mxGeometry>
        </mxCell>
        <mxCell id="rDjfU8Yx-AFuf_76eB-S-21" value="" style="endArrow=none;html=1;rounded=0;strokeColor=#18141d;" parent="1" edge="1">
          <mxGeometry width="50" height="50" relative="1" as="geometry">
            <mxPoint x="1035" y="332" as="sourcePoint" />
            <mxPoint x="1047" y="320" as="targetPoint" />
          </mxGeometry>
        </mxCell>
        <mxCell id="rDjfU8Yx-AFuf_76eB-S-22" value="&lt;font color=&quot;#000000&quot; style=&quot;font-size: 11px;&quot;&gt;32&lt;/font&gt;" style="text;html=1;strokeColor=none;fillColor=none;align=center;verticalAlign=middle;whiteSpace=wrap;rounded=0;" parent="1" vertex="1">
          <mxGeometry x="1041" y="306" width="12" height="14" as="geometry" />
        </mxCell>
        <mxCell id="rDjfU8Yx-AFuf_76eB-S-23" value="&lt;font color=&quot;#000000&quot; style=&quot;font-size: 11px;&quot;&gt;32&lt;/font&gt;" style="text;html=1;strokeColor=none;fillColor=none;align=center;verticalAlign=middle;whiteSpace=wrap;rounded=0;" parent="1" vertex="1">
          <mxGeometry x="1041" y="346" width="12" height="14" as="geometry" />
        </mxCell>
        <mxCell id="rDjfU8Yx-AFuf_76eB-S-27" value="" style="rounded=0;whiteSpace=wrap;html=1;direction=south;" parent="1" vertex="1">
          <mxGeometry x="710" y="495" width="219" height="120" as="geometry" />
        </mxCell>
        <mxCell id="rDjfU8Yx-AFuf_76eB-S-28" value="" style="rounded=0;whiteSpace=wrap;html=1;rotation=-90;" parent="1" vertex="1">
          <mxGeometry x="347" y="443" width="120" height="224" as="geometry" />
        </mxCell>
        <mxCell id="rDjfU8Yx-AFuf_76eB-S-29" value="&lt;span style=&quot;font-size: 15px;&quot;&gt;&lt;b&gt;ARM(ARM)&lt;/b&gt;&lt;/span&gt;" style="text;html=1;strokeColor=none;fillColor=none;align=center;verticalAlign=middle;whiteSpace=wrap;rounded=0;" parent="1" vertex="1">
          <mxGeometry x="528" y="349" width="166" height="24" as="geometry" />
        </mxCell>
        <mxCell id="rDjfU8Yx-AFuf_76eB-S-30" value="&lt;span style=&quot;font-size: 15px;&quot;&gt;&lt;b&gt;IMEM(IMEM)&lt;/b&gt;&lt;/span&gt;" style="text;html=1;strokeColor=none;fillColor=none;align=center;verticalAlign=middle;whiteSpace=wrap;rounded=0;" parent="1" vertex="1">
          <mxGeometry x="324" y="594" width="166" height="24" as="geometry" />
        </mxCell>
        <mxCell id="rDjfU8Yx-AFuf_76eB-S-31" value="&lt;span style=&quot;font-size: 15px;&quot;&gt;&lt;b&gt;DMEM(DMEM)&lt;/b&gt;&lt;/span&gt;" style="text;html=1;strokeColor=none;fillColor=none;align=center;verticalAlign=middle;whiteSpace=wrap;rounded=0;" parent="1" vertex="1">
          <mxGeometry x="751" y="594" width="166" height="24" as="geometry" />
        </mxCell>
        <mxCell id="rDjfU8Yx-AFuf_76eB-S-32" value="" style="shape=waypoint;sketch=0;fillStyle=solid;size=6;pointerEvents=1;points=[];fillColor=none;resizable=0;rotatable=0;perimeter=centerPerimeter;snapToPoint=1;strokeColor=#030303;" parent="1" vertex="1">
          <mxGeometry x="716" y="423" width="20" height="20" as="geometry" />
        </mxCell>
        <mxCell id="rDjfU8Yx-AFuf_76eB-S-33" value="" style="shape=waypoint;sketch=0;fillStyle=solid;size=6;pointerEvents=1;points=[];fillColor=none;resizable=0;rotatable=0;perimeter=centerPerimeter;snapToPoint=1;strokeColor=#030303;" parent="1" vertex="1">
          <mxGeometry x="487" y="373" width="20" height="20" as="geometry" />
        </mxCell>
        <mxCell id="rDjfU8Yx-AFuf_76eB-S-34" value="" style="shape=waypoint;sketch=0;fillStyle=solid;size=6;pointerEvents=1;points=[];fillColor=none;resizable=0;rotatable=0;perimeter=centerPerimeter;snapToPoint=1;strokeColor=#030303;" parent="1" vertex="1">
          <mxGeometry x="487" y="338" width="20" height="20" as="geometry" />
        </mxCell>
        <mxCell id="rDjfU8Yx-AFuf_76eB-S-35" value="" style="shape=waypoint;sketch=0;fillStyle=solid;size=6;pointerEvents=1;points=[];fillColor=none;resizable=0;rotatable=0;perimeter=centerPerimeter;snapToPoint=1;strokeColor=#030303;" parent="1" vertex="1">
          <mxGeometry x="487" y="303" width="20" height="20" as="geometry" />
        </mxCell>
        <mxCell id="rDjfU8Yx-AFuf_76eB-S-36" value="" style="verticalLabelPosition=bottom;verticalAlign=top;html=1;shape=mxgraph.basic.rect;fillColor2=none;strokeWidth=1;size=0;indent=5;strokeColor=none;fillColor=#000000;" parent="1" vertex="1">
          <mxGeometry x="492" y="409" width="8" height="8" as="geometry" />
        </mxCell>
        <mxCell id="rDjfU8Yx-AFuf_76eB-S-37" value="" style="verticalLabelPosition=bottom;verticalAlign=top;html=1;shape=mxgraph.basic.rect;fillColor2=none;strokeWidth=1;size=0;indent=5;strokeColor=none;fillColor=#000000;" parent="1" vertex="1">
          <mxGeometry x="722" y="298" width="8" height="8" as="geometry" />
        </mxCell>
        <mxCell id="rDjfU8Yx-AFuf_76eB-S-38" value="" style="verticalLabelPosition=bottom;verticalAlign=top;html=1;shape=mxgraph.basic.rect;fillColor2=none;strokeWidth=1;size=0;indent=5;strokeColor=none;fillColor=#000000;" parent="1" vertex="1">
          <mxGeometry x="722" y="344" width="8" height="8" as="geometry" />
        </mxCell>
        <mxCell id="rDjfU8Yx-AFuf_76eB-S-39" value="" style="verticalLabelPosition=bottom;verticalAlign=top;html=1;shape=mxgraph.basic.rect;fillColor2=none;strokeWidth=1;size=0;indent=5;strokeColor=none;fillColor=#000000;" parent="1" vertex="1">
          <mxGeometry x="722" y="390" width="8" height="8" as="geometry" />
        </mxCell>
        <mxCell id="-g-l04VQu6hcERDFekga-1" value="" style="shape=waypoint;sketch=0;fillStyle=solid;size=6;pointerEvents=1;points=[];fillColor=none;resizable=0;rotatable=0;perimeter=centerPerimeter;snapToPoint=1;strokeColor=#030303;" parent="1" vertex="1">
          <mxGeometry x="772" y="481" width="20" height="20" as="geometry" />
        </mxCell>
        <mxCell id="-g-l04VQu6hcERDFekga-2" value="" style="shape=waypoint;sketch=0;fillStyle=solid;size=6;pointerEvents=1;points=[];fillColor=none;resizable=0;rotatable=0;perimeter=centerPerimeter;snapToPoint=1;strokeColor=#030303;" parent="1" vertex="1">
          <mxGeometry x="809.5" y="481" width="20" height="20" as="geometry" />
        </mxCell>
        <mxCell id="-g-l04VQu6hcERDFekga-3" value="" style="shape=waypoint;sketch=0;fillStyle=solid;size=6;pointerEvents=1;points=[];fillColor=none;resizable=0;rotatable=0;perimeter=centerPerimeter;snapToPoint=1;strokeColor=#030303;" parent="1" vertex="1">
          <mxGeometry x="847" y="481" width="20" height="20" as="geometry" />
        </mxCell>
        <mxCell id="-g-l04VQu6hcERDFekga-4" value="" style="verticalLabelPosition=bottom;verticalAlign=top;html=1;shape=mxgraph.basic.rect;fillColor2=none;strokeWidth=1;size=0;indent=5;strokeColor=none;fillColor=#000000;" parent="1" vertex="1">
          <mxGeometry x="746" y="487" width="8" height="8" as="geometry" />
        </mxCell>
        <mxCell id="-g-l04VQu6hcERDFekga-5" value="" style="shape=waypoint;sketch=0;fillStyle=solid;size=6;pointerEvents=1;points=[];fillColor=none;resizable=0;rotatable=0;perimeter=centerPerimeter;snapToPoint=1;strokeColor=#030303;" parent="1" vertex="1">
          <mxGeometry x="430" y="481" width="20" height="20" as="geometry" />
        </mxCell>
        <mxCell id="-g-l04VQu6hcERDFekga-6" value="" style="verticalLabelPosition=bottom;verticalAlign=top;html=1;shape=mxgraph.basic.rect;fillColor2=none;strokeWidth=1;size=0;indent=5;strokeColor=none;fillColor=#000000;" parent="1" vertex="1">
          <mxGeometry x="400" y="487" width="8" height="8" as="geometry" />
        </mxCell>
        <mxCell id="-g-l04VQu6hcERDFekga-7" value="&lt;span style=&quot;font-size: 11px;&quot;&gt;CLK&lt;/span&gt;" style="text;html=1;strokeColor=none;fillColor=none;align=center;verticalAlign=middle;whiteSpace=wrap;rounded=0;" parent="1" vertex="1">
          <mxGeometry x="500" y="301" width="28" height="24" as="geometry" />
        </mxCell>
        <mxCell id="-g-l04VQu6hcERDFekga-8" value="&lt;font color=&quot;#000000&quot; style=&quot;font-size: 11px;&quot;&gt;RESET&lt;/font&gt;" style="text;html=1;strokeColor=none;fillColor=none;align=center;verticalAlign=middle;whiteSpace=wrap;rounded=0;" parent="1" vertex="1">
          <mxGeometry x="500" y="336" width="43" height="24" as="geometry" />
        </mxCell>
        <mxCell id="-g-l04VQu6hcERDFekga-13" value="" style="edgeStyle=elbowEdgeStyle;elbow=horizontal;endArrow=classic;html=1;curved=0;rounded=0;endSize=8;startSize=8;exitX=0.917;exitY=0.687;exitDx=0;exitDy=0;exitPerimeter=0;" parent="1" source="rDjfU8Yx-AFuf_76eB-S-5" edge="1">
          <mxGeometry width="50" height="50" relative="1" as="geometry">
            <mxPoint x="445" y="363" as="sourcePoint" />
            <mxPoint x="495" y="313" as="targetPoint" />
          </mxGeometry>
        </mxCell>
        <mxCell id="-g-l04VQu6hcERDFekga-14" value="" style="edgeStyle=elbowEdgeStyle;elbow=horizontal;endArrow=classic;html=1;curved=0;rounded=0;endSize=8;startSize=8;exitX=0.7;exitY=0.554;exitDx=0;exitDy=0;exitPerimeter=0;" parent="1" source="rDjfU8Yx-AFuf_76eB-S-6" edge="1">
          <mxGeometry width="50" height="50" relative="1" as="geometry">
            <mxPoint x="289" y="338" as="sourcePoint" />
            <mxPoint x="493" y="348" as="targetPoint" />
          </mxGeometry>
        </mxCell>
        <mxCell id="-g-l04VQu6hcERDFekga-15" value="&lt;span style=&quot;font-size: 11px;&quot;&gt;Instr&lt;/span&gt;" style="text;html=1;strokeColor=none;fillColor=none;align=center;verticalAlign=middle;whiteSpace=wrap;rounded=0;" parent="1" vertex="1">
          <mxGeometry x="500" y="371" width="28" height="24" as="geometry" />
        </mxCell>
        <mxCell id="-g-l04VQu6hcERDFekga-16" value="&lt;span style=&quot;font-size: 11px;&quot;&gt;PC&lt;/span&gt;" style="text;html=1;strokeColor=none;fillColor=none;align=center;verticalAlign=middle;whiteSpace=wrap;rounded=0;" parent="1" vertex="1">
          <mxGeometry x="500" y="402" width="24" height="24" as="geometry" />
        </mxCell>
        <mxCell id="MBtktPNRNGLaOuD2yrx--4" value="" style="curved=1;endArrow=classic;html=1;rounded=0;" parent="1" edge="1">
          <mxGeometry width="50" height="50" relative="1" as="geometry">
            <mxPoint x="404" y="491" as="sourcePoint" />
            <mxPoint x="493" y="383" as="targetPoint" />
            <Array as="points">
              <mxPoint x="401" y="376" />
            </Array>
          </mxGeometry>
        </mxCell>
        <mxCell id="MBtktPNRNGLaOuD2yrx--5" value="" style="curved=1;endArrow=classic;html=1;rounded=0;entryX=0;entryY=0.51;entryDx=0;entryDy=0;entryPerimeter=0;" parent="1" source="-g-l04VQu6hcERDFekga-5" target="rDjfU8Yx-AFuf_76eB-S-36" edge="1">
          <mxGeometry width="50" height="50" relative="1" as="geometry">
            <mxPoint x="394" y="521" as="sourcePoint" />
            <mxPoint x="487" y="413" as="targetPoint" />
            <Array as="points">
              <mxPoint x="443" y="413" />
            </Array>
          </mxGeometry>
        </mxCell>
      </root>
    </mxGraphModel>
  </diagram>
</mxfile>
